#!OML:ASF H:\ManfredETheater\Project 1\Capture day 1\Session 1\subject.ASF
:FULLY-SPECIFIED
:DEGREES
94
root 5.34715 13.5287 -23.4864 -27.9965 -74.112 48.9683
lowerback 54.1747 1.78094 2.44685
upperback 10.6268 1.44117 -1.71376
thorax -9.06857 0.148362 -3.53327
lowerneck -19.3201 26.5864 -4.94887
upperneck 0.0511759 50.3068 -4.45987
head 34.8409 -54.163 143.827
rclavicle 9.54166e-015 -6.59965e-014
rhumerus -1.90016 1.11669 -56.471
rradius 79.1344
rwrist -3.78911
rhand -28.8237 2.15965
rfingers 7.12502
rthumb -2.1814 -27.8089
lclavicle 9.54166e-015 -6.59965e-014
lhumerus -35.5867 9.2501 79.1928
lradius 114.669
lwrist 4.51141
lhand -32.5267 4.62649
lfingers 7.12502
lthumb -5.75726 34.5283
rfemur -80.6104 -16.9689 18.4658
rtibia 103.03
rfoot -31.1156 -5.49203
rtoes -25.7165
lfemur -59.1229 17.0107 5.44275
ltibia 67.9613
lfoot -4.0645 -4.13278
ltoes -9.7834
95
root 5.37562 13.4363 -23.3382 -27.92 -74.6291 49.3592
lowerback 54.8405 1.84179 2.4477
upperback 10.5826 1.50411 -1.59338
thorax -9.1754 0.157912 -3.42807
lowerneck -19.7567 26.6143 -5.19145
upperneck -0.047273 50.4247 -4.60538
head 35.0597 -54.2938 143.479
rclavicle -6.99722e-014 -1.27222e-014
rhumerus -0.166738 1.01554 -55.6555
rradius 77.9644
rwrist -3.79303
rhand -29.0641 2.46156
rfingers 7.12502
rthumb -2.41361 -27.5045
lclavicle -6.99722e-014 -1.27222e-014
lhumerus -35.6165 9.45523 78.6224
lradius 115.392
lwrist 4.68907
lhand -32.0106 5.14545
lfingers 7.12502
lthumb -5.25894 35.0602
rfemur -81.594 -16.9238 18.0806
rtibia 103.632
rfoot -31.5196 -5.14297
rtoes -26.5079
lfemur -58.39 16.8092 7.15612
ltibia 66.2665
lfoot -3.05235 -4.09205
ltoes -12.02
96
root 5.40464 13.34 -23.1883 -27.4496 -75.1296 49.4107
lowerback 55.368 1.91345 2.45239
upperback 10.5512 1.59413 -1.41439
thorax -9.25175 0.178113 -3.27142
lowerneck -20.1655 26.6491 -5.43742
upperneck -0.128427 50.5714 -4.74295
head 35.2592 -54.3814 143.154
rclavicle -4.6118e-014 1.11319e-014
rhumerus 1.50212 0.863989 -54.8375
rradius 76.8587
rwrist -3.8948
rhand -29.2951 2.7572
rfingers 7.12502
rthumb -2.63673 -27.2062
lclavicle -4.6118e-014 1.11319e-014
lhumerus -35.6877 9.6006 78.1614
lradius 116.102
lwrist 4.53327
lhand -31.5541 5.4421
lfingers 7.12502
lthumb -4.81823 35.3673
rfemur -82.6764 -16.9362 17.8411
rtibia 104.236
rfoot -31.9109 -4.94541
rtoes -27.2114
lfemur -57.8339 16.6568 8.80696
ltibia 64.7333
lfoot -2.32288 -4.28376
ltoes -14.131
97
root 5.43365 13.2411 -23.0357 -26.6152 -75.615 49.1329
lowerback 55.7659 1.99181 2.47664
upperback 10.5413 1.7111 -1.19258
thorax -9.29028 0.20951 -3.08766
lowerneck -20.5485 26.689 -5.6756
upperneck -0.196487 50.7305 -4.87013
head 35.4312 -54.4298 142.86
rclavicle -4.92986e-014 6.75868e-015
rhumerus 3.06512 0.650823 -54.0306
rradius 75.8555
rwrist -4.07689
rhand -29.5709 3.01362
rfingers 7.12502
rthumb -2.90304 -26.9464
lclavicle -4.92986e-014 6.75868e-015
lhumerus -35.7843 9.66498 77.8109
lradius 116.788
lwrist 4.06226
lhand -31.2174 5.58927
lfingers 7.12502
lthumb -4.49302 35.5216
rfemur -83.83 -17.006 17.7219
rtibia 104.844
rfoot -32.2736 -4.8778
rtoes -27.8486
lfemur -57.437 16.5642 10.3768
ltibia 63.3775
lfoot -1.84768 -4.68498
ltoes -15.8843
98
root 5.46212 13.1399 -22.8804 -25.4849 -76.1027 48.5816
lowerback 56.0416 2.08683 2.51562
upperback 10.5589 1.85835 -0.950698
thorax -9.28662 0.254447 -2.90125
lowerneck -20.9098 26.738 -5.88725
upperneck -0.257726 50.8885 -4.98438
head 35.568 -54.4405 142.604
rclavicle 1.59028e-015 -1.35174e-014
rhumerus 4.48928 0.36054 -53.2702
rradius 74.9852
rwrist -4.32098
rhand -29.9055 3.23185
rfingers 7.12502
rthumb -3.22619 -26.7235
lclavicle 1.59028e-015 -1.35174e-014
lhumerus -35.8964 9.64062 77.5534
lradius 117.455
lwrist 3.33125
lhand -31.0023 5.65987
lfingers 7.12502
lthumb -4.28535 35.5965
rfemur -85.0326 -17.0868 17.6787
rtibia 105.463
rfoot -32.591 -4.91097
rtoes -28.4622
lfemur -57.179 16.5818 11.8421
ltibia 62.2126
lfoot -1.54992 -5.28932
ltoes -17.2703
99
root 5.48967 13.0372 -22.7211 -24.1211 -76.5696 47.7915
lowerback 56.2239 2.17032 2.58006
upperback 10.6047 2.00539 -0.708498
thorax -9.24387 0.300311 -2.72542
lowerneck -21.2464 26.8052 -6.06927
upperneck -0.311132 51.0579 -5.08604
head 35.6698 -54.4077 142.388
rclavicle -5.725e-014 -8.34896e-015
rhumerus 5.76857 0.0101701 -52.5769
rradius 74.2678
rwrist -4.60676
rhand -30.3033 3.40525
rfingers 7.12502
rthumb -3.61034 -26.5439
lclavicle -5.725e-014 -8.34896e-015
lhumerus -36.0266 9.56641 77.3703
lradius 118.11
lwrist 2.43394
lhand -30.8492 5.68103
lfingers 7.12502
lthumb -4.13754 35.6206
rfemur -86.2432 -17.2119 17.6521
rtibia 106.094
rfoot -32.8626 -4.96623
rtoes -29.0846
lfemur -57.0569 16.7065 13.1532
ltibia 61.2584
lfoot -1.3347 -6.07138
ltoes -18.3928
100
root 5.51474 12.9351 -22.5568 -22.6751 -77.0331 46.8503
lowerback 56.3914 2.25628 2.66368
upperback 10.6736 2.16114 -0.46896
thorax -9.1735 0.3496 -2.56437
lowerneck -21.5524 26.8841 -6.22564
upperneck -0.356002 51.2254 -5.17325
head 35.7313 -54.3402 142.218
rclavicle -1.11319e-014 -1.15295e-014
rhumerus 6.88939 -0.406933 -51.9477
rradius 73.7099
rwrist -4.91096
rhand -30.7496 3.53585
rfingers 7.12502
rthumb -4.04135 -26.4056
lclavicle -1.11319e-014 -1.15295e-014
lhumerus -36.169 9.44933 77.2729
lradius 118.762
lwrist 1.48198
lhand -30.7613 5.71654
lfingers 7.12502
lthumb -4.05262 35.6577
rfemur -87.3581 -17.3641 17.5778
rtibia 106.723
rfoot -33.1014 -4.9872
rtoes -29.7586
lfemur -56.9924 16.9221 14.2993
ltibia 60.5382
lfoot -1.14308 -6.94502
ltoes -19.4389
101
root 5.53691 12.8334 -22.3866 -21.1463 -77.5027 45.7288
lowerback 56.5887 2.30028 2.81034
upperback 10.7559 2.2902 -0.287969
thorax -9.08746 0.389332 -2.48365
lowerneck -21.8289 26.9988 -6.31442
upperneck -0.401529 51.3924 -5.24246
head 35.7577 -54.2392 142.091
rclavicle 4.92986e-014 -3.57812e-014
rhumerus 7.85031 -0.89181 -51.4691
rradius 73.3053
rwrist -5.20236
rhand -31.201 3.64225
rfingers 7.12502
rthumb -4.4772 -26.2904
lclavicle 4.92986e-014 -3.57812e-014
lhumerus -36.3215 9.31906 77.1695
lradius 119.421
lwrist 0.6524
lhand -30.6213 5.69435
lfingers 7.12502
lthumb -3.91746 35.6381
rfemur -88.3365 -17.5364 17.4358
rtibia 107.351
rfoot -33.3134 -4.95357
rtoes -30.529
lfemur -56.9739 17.2875 15.2575
ltibia 60.0916
lfoot -1.04775 -7.80097
ltoes -20.9388
